<?xml version="1.0" encoding="UTF-8" standalone="no"?>
<svg
   id="Layer_1"
   data-name="Layer 1"
   viewBox="0 0 371.2 381.32"
   version="1.1"
   sodipodi:docname="big-game (1).svg"
   inkscape:version="1.2.1 (9c6d41e410, 2022-07-14)"
   xmlns:inkscape="http://www.inkscape.org/namespaces/inkscape"
   xmlns:sodipodi="http://sodipodi.sourceforge.net/DTD/sodipodi-0.dtd"
   xmlns="http://www.w3.org/2000/svg"
   xmlns:svg="http://www.w3.org/2000/svg">
  <sodipodi:namedview
     id="namedview38"
     pagecolor="#ffffff"
     bordercolor="#000000"
     borderopacity="0.25"
     inkscape:showpageshadow="2"
     inkscape:pageopacity="0.0"
     inkscape:pagecheckerboard="0"
     inkscape:deskcolor="#d1d1d1"
     showgrid="false"
     inkscape:zoom="2"
     inkscape:cx="374.75"
     inkscape:cy="176.25"
     inkscape:window-width="2560"
     inkscape:window-height="1010"
     inkscape:window-x="1680"
     inkscape:window-y="0"
     inkscape:window-maximized="1"
     inkscape:current-layer="Layer_1" />
  <defs
     id="defs9">
    <style
       id="style2">.cls-1{fill:#2b91c9;}.cls-2{fill:#02679a;}.cls-3{fill:#37474f;}.cls-4{fill:#2a2c2b;}.cls-5{fill:#afbec3;}.cls-6{fill:#b11f24;}.cls-7{fill:#e81e28;}.cls-8{fill:url(#linear-gradient);}.cls-9{fill:#fff;}</style>
    <linearGradient
       id="linear-gradient"
       x1="164.17"
       y1="354.66"
       x2="285.89"
       y2="354.66"
       gradientTransform="matrix(1, 0, 0, -1, -39.43, 415.52)"
       gradientUnits="userSpaceOnUse">
      <stop
         offset="0"
         stop-color="#2e87c8"
         id="stop4" />
      <stop
         offset="1"
         stop-color="#13bccd"
         id="stop6" />
    </linearGradient>
  </defs>
  <polygon
     class="cls-1"
     points="185.88 301.14 0 207.47 185.88 115.35 371.2 208.25 185.88 301.14"
     id="polygon11" />
  <polygon
     class="cls-2"
     points="185.88 330.05 0 235.23 0 207.47 185.88 301.14 371.2 208.25 371.2 236 185.88 330.05"
     id="polygon13" />
  <polygon
     class="cls-3"
     points="0 288.81 0 235.23 185.88 330.05 371.2 236 371.2 288.42 185.6 381.32 0 288.81"
     id="polygon15" />
  <ellipse
     class="cls-4"
     cx="185.6"
     cy="206.24"
     rx="81.15"
     ry="43.25"
     id="ellipse17" />
  <path
     class="cls-5"
     d="M238.38,134.37h-26.7V242.62h.08c.72,3.89,6.32,6.92,13.12,6.92s12.39-3,13.11-6.92h.39Z"
     transform="translate(-39.43 -34.37)"
     id="path19" />
  <ellipse
     class="cls-6"
     cx="65.02"
     cy="210.62"
     rx="27.33"
     ry="13.19"
     id="ellipse21" />
  <rect
     class="cls-6"
     x="37.69"
     y="195.91"
     width="54.66"
     height="14.72"
     id="rect23" />
  <ellipse
     class="cls-7"
     cx="65.02"
     cy="196.21"
     rx="27.33"
     ry="13.19"
     id="ellipse25" />
  <circle
     class="cls-8"
     cx="185.6"
     cy="60.86"
     r="60.86"
     id="circle27" />
  <g
     id="g202"
     transform="matrix(1.0662939,0,0,1.0662939,-12.33225,-4.0187109)">
    <path
       class="cls-9"
       d="m 206.77,88.58 c -7.82,-4.51 -12.33,0.37 -13.1,1.14 -0.77,0.77 -16.67,20.7 -14.13,-17.17 0,0 -5.61,6.11 -5.95,20.62 -0.34,14.51 9,15.42 9,15.42 0,0 4.12,1 12.31,-7.83 8.19,-8.83 8.77,-8.46 8.77,-8.46 0,0 2.31,-1.64 2.58,2.47 0.27,4.11 1.16,16.53 -11.35,23.23 -12.51,6.7 -18.57,-9.75 -18.57,-9.75 0,0 1.56,24.76 21.13,21.48 19.57,-3.28 18.74,-26 18.74,-26 a 18.29,18.29 0 0 0 -9.43,-15.15 z"
       transform="translate(-39.43,-34.37)"
       id="path29" />
    <ellipse
       class="cls-9"
       cx="219.87"
       cy="76.540001"
       rx="8.8599997"
       ry="6.6500001"
       transform="rotate(-12.08,37.747442,245.68303)"
       id="ellipse31" />
    <path
       class="cls-9"
       d="m 230,91 a 6.7834523,6.7834523 0 1 0 -13.53,1 v 0 a 6.52,6.52 0 0 0 0.31,1.57 c 0,0 4,15.7 25.19,16.2 C 242,109.76 229.7,101 230,91 Z"
       transform="translate(-39.43,-34.37)"
       id="path33" />
    <path
       class="cls-9"
       d="m 267.49,81.88 c 0,0 -4.12,-1 -12.31,7.82 -8.19,8.82 -8.77,8.46 -8.77,8.46 0,0 -2.31,1.64 -2.58,-2.47 -0.27,-4.11 -1.16,-16.53 11.35,-23.26 12.51,-6.73 18.57,9.76 18.57,9.76 0,0 -1.56,-24.77 -21.13,-21.49 -19.57,3.28 -18.74,26 -18.74,26 a 18.3,18.3 0 0 0 9.41,15.19 c 7.82,4.51 12.33,-0.37 13.1,-1.14 0.77,-0.77 16.69,-20.69 14.13,17.15 0,0 5.61,-6.11 6,-20.62 0.39,-14.51 -9.03,-15.4 -9.03,-15.4 z"
       transform="translate(-39.43,-34.37)"
       id="path35" />
  </g>
</svg>
